<?xml version="1.0" encoding="utf-8"?>
<!-- Generator: Adobe Illustrator 19.1.0, SVG Export Plug-In . SVG Version: 6.00 Build 0)  -->
<svg version="1.1" xmlns="http://www.w3.org/2000/svg" xmlns:xlink="http://www.w3.org/1999/xlink" x="0px" y="0px"
	 viewBox="0 0 246.3 246.3" style="enable-background:new 0 0 246.3 246.3;" xml:space="preserve">
<style type="text/css">
	.st0{fill:#FFFFFF;stroke:#000000;stroke-miterlimit:10;}
	.st1{fill:#51559E;}
	.st2{fill:#213568;}
</style>
<g id="Layer_1">
	<rect class="st0" width="246.3" height="246.3"/>
</g>
<g id="Layer_2">
	<g>
		<line class="st1" x1="85.9" y1="11.4" x2="85.9" y2="234.9"/>
		<g>
			<path class="st2" d="M83.4,11.4c0,25.1,0,50.3,0,75.4c0,40.1,0,80.2,0,120.3c0,9.2,0,18.5,0,27.7c0,3.2,5,3.2,5,0
				c0-25.1,0-50.3,0-75.4c0-40.1,0-80.2,0-120.3c0-9.2,0-18.5,0-27.7C88.4,8.2,83.4,8.2,83.4,11.4L83.4,11.4z"/>
		</g>
	</g>
	<g>
		<line class="st1" x1="11.4" y1="85.9" x2="234.9" y2="85.9"/>
		<g>
			<path class="st2" d="M11.4,88.4c25.1,0,50.3,0,75.4,0c40.1,0,80.2,0,120.3,0c9.2,0,18.5,0,27.7,0c3.2,0,3.2-5,0-5
				c-25.1,0-50.3,0-75.4,0c-40.1,0-80.2,0-120.3,0c-9.2,0-18.5,0-27.7,0C8.2,83.4,8.2,88.4,11.4,88.4L11.4,88.4z"/>
		</g>
	</g>
	<g>
		<line class="st1" x1="11.4" y1="160.4" x2="234.9" y2="160.4"/>
		<g>
			<path class="st2" d="M11.4,162.9c25.1,0,50.3,0,75.4,0c40.1,0,80.2,0,120.3,0c9.2,0,18.5,0,27.7,0c3.2,0,3.2-5,0-5
				c-25.1,0-50.3,0-75.4,0c-40.1,0-80.2,0-120.3,0c-9.2,0-18.5,0-27.7,0C8.2,157.9,8.2,162.9,11.4,162.9L11.4,162.9z"/>
		</g>
	</g>
	<g>
		<line class="st1" x1="160.4" y1="234.9" x2="160.4" y2="11.4"/>
		<g>
			<path class="st2" d="M162.9,234.9c0-25.1,0-50.3,0-75.4c0-40.1,0-80.2,0-120.3c0-9.2,0-18.5,0-27.7c0-3.2-5-3.2-5,0
				c0,25.1,0,50.3,0,75.4c0,40.1,0,80.2,0,120.3c0,9.2,0,18.5,0,27.7C157.9,238.1,162.9,238.1,162.9,234.9L162.9,234.9z"/>
		</g>
	</g>
</g>
</svg>
